<svg version="1.2" xmlns="http://www.w3.org/2000/svg" viewBox="0 0 500 500" width="500" height="500">
	<style>
		.s0 { fill: #e91e63 } 
	</style>
	<g id="Background">
		<path id="Path 1" class="s0" d="m144.99 203.75l-0.02 62.75c44.46 40.3 57.74 52.11 58.2 52.25 0.46 0.14 0.83-39.8 0.83-88.75v-89h-59zm155.01 32l-0.01 94.75c9.12-10.07 21.7-23.8 33.84-37l22.07-24 0.1-128.5h-56zm-77.99 19.25v82c24.98 21.65 30.44 25.75 31.33 25.25 0.73-0.41 7.48-7.5 15-15.75l13.67-15v-158.5h-60zm131.79 55.82c-28.98 27.88-52.49 51.02-52.25 51.43 0.25 0.41 24.08 0.75 52.96 0.75h52.5c0-79.82-0.11-102.97-0.25-102.93-0.14 0.04-23.97 22.88-52.96 50.75zm-249.3-49.15c-0.46 0.37-0.75 24.21-0.66 53l0.17 52.33h102c-2.71-3.59-11.38-12.92-21-23.05-9.63-10.12-25.4-26.52-35.04-36.43-9.65-9.91-23.64-24.43-31.1-32.26-7.45-7.84-13.92-13.95-14.37-13.59z"/>
	</g>
</svg>